<svg height="26" viewBox="0 0 26 26" width="26" xmlns="http://www.w3.org/2000/svg"><path d="m123.914 35.5c6.904 0 12.5 5.596 12.5 12.5 0 6.903-5.596 12.5-12.5 12.5s-12.5-5.597-12.5-12.5c0-6.904 5.596-12.5 12.5-12.5zm4.764 6.25h-9.528c-.82 0-1.486.663-1.486 1.482v9.535c0 .819.666 1.483 1.486 1.483h9.528c.821 0 1.486-.664 1.486-1.483v-9.535c0-.819-.665-1.482-1.486-1.482zm-8.416 5.261c-.089.32-.136.656-.136 1.003 0 2.092 1.706 3.794 3.803 3.794s3.802-1.702 3.802-3.794c0-.347-.047-.683-.135-1.003h1.17v5.436c0 .193-.157.35-.35.35h-8.975c-.193 0-.349-.157-.349-.35v-5.436zm3.667-1.395c1.327 0 2.404 1.074 2.404 2.398 0 1.325-1.077 2.398-2.404 2.398-1.328 0-2.404-1.073-2.404-2.398 0-1.324 1.076-2.398 2.404-2.398zm4.458-2.442c.192 0 .35.156.35.349v1.686c0 .193-.158.349-.35.349h-1.69c-.193 0-.35-.156-.35-.349v-1.686c0-.193.157-.349.35-.349z" fill="#00beb3" fill-rule="evenodd" transform="translate(-111.024 -35)"/></svg>